<svg xmlns="http://www.w3.org/2000/svg" viewBox="3664.376 848 97.176 97.173">
  <defs>
    <style>
      .cls-1 {
        fill: #fff;
      }
    </style>
  </defs>
  <g id="Group_2" data-name="Group 2" transform="translate(3662 845.624)">
    <path id="Path_2" data-name="Path 2" class="cls-1" d="M3.825,45.48,41.3,60.621,56.44,98.1a2.316,2.316,0,0,0,2.135,1.449h.015a2.323,2.323,0,0,0,2.141-1.424L99.372,5.588a2.319,2.319,0,0,0-3.034-3.034L3.8,41.189a2.321,2.321,0,0,0,.025,4.291ZM92.915,9.005,58.626,91.128,45.808,59.394l19.775-19.77a2.317,2.317,0,0,0-3.276-3.276L42.531,56.112,10.8,43.294Z" transform="translate(0 0)"/>
  </g>
</svg>
